<svg width="35" height="35" viewBox="0 0 35 35" fill="none" xmlns="http://www.w3.org/2000/svg">
<path fill-rule="evenodd" clip-rule="evenodd" d="M14.7026 8.67122L22.306 12.0921C24.6174 13.132 26.4364 13.9504 27.6704 14.7254C28.8893 15.4909 29.8417 16.3984 29.8417 17.7154C29.8417 19.0323 28.8893 19.9399 27.6704 20.7053C26.4364 21.4803 24.6174 22.2987 22.3061 23.3386L14.7026 26.7595C13.2899 27.3951 12.1909 27.8895 11.3327 28.2104C10.493 28.5244 9.74251 28.7307 9.07519 28.6581C7.45662 28.4821 6.06384 27.3722 5.72676 25.8052C5.58389 25.1411 5.78366 24.3981 6.07068 23.6263C6.36786 22.8272 6.84019 21.8012 7.44192 20.4941L7.45815 20.4588C7.92844 19.4372 8.10942 19.0341 8.20177 18.6319C8.34068 18.027 8.34068 17.4037 8.20177 16.7988C8.10942 16.3966 7.92844 15.9935 7.45815 14.9719L7.44192 14.9366C6.84019 13.6295 6.36786 12.6035 6.07068 11.8044C5.78366 11.0326 5.58389 10.2896 5.72676 9.6255C6.06384 8.05853 7.45662 6.94862 9.07519 6.77261C9.74251 6.70004 10.493 6.90627 11.3327 7.22028C12.1909 7.54117 13.2899 8.03563 14.7026 8.67122ZM10.7423 8.79925C9.91718 8.49071 9.49567 8.42259 9.25744 8.44849C8.25939 8.55702 7.53862 9.21858 7.37482 9.98003C7.34434 10.1217 7.36562 10.4501 7.65072 11.2168C7.92299 11.9489 8.36802 12.917 8.98945 14.267C9.00307 14.2965 9.01652 14.3258 9.02982 14.3546C9.44678 15.2601 9.70869 15.8289 9.84477 16.4215C10.0407 17.2748 10.0407 18.156 9.84477 19.0092C9.70869 19.6018 9.44678 20.1706 9.02981 21.0761C9.01652 21.1049 9.00306 21.1342 8.98945 21.1637C8.36802 22.5137 7.92299 23.4818 7.65072 24.2139C7.36562 24.9806 7.34434 25.309 7.37482 25.4507C7.53862 26.2121 8.25939 26.8737 9.25744 26.9822C9.49567 27.0081 9.91718 26.94 10.7423 26.6315C11.5428 26.3321 12.5918 25.8606 14.0413 25.2085L21.5462 21.8319C23.9403 20.7548 25.651 19.9829 26.7739 19.2778C27.9239 18.5555 28.156 18.0863 28.156 17.7154C28.156 17.3445 27.9239 16.8752 26.7739 16.153C25.651 15.4478 23.9403 14.6759 21.5462 13.5988L14.0413 10.2223C12.5918 9.57011 11.5428 9.09861 10.7423 8.79925Z" fill="#02040F"/>
</svg>
